<svg width="40" height="40" viewBox="0 0 40 40" fill="none" xmlns="http://www.w3.org/2000/svg">
<circle cx="20" cy="20" r="20" fill="#2A2A2A"/>
<circle cx="20" cy="20" r="19" stroke="white" stroke-opacity="0.5" stroke-width="2"/>
<path fill-rule="evenodd" clip-rule="evenodd" d="M18.9824 13.3764V15.9955C18.9824 16.1722 18.9465 16.3512 18.8732 16.5173C17.7098 19.1527 15.9939 20.4447 14.3478 20.7388C14.3075 20.746 14.2748 20.7664 14.2566 20.7862C14.2484 20.7951 14.2454 20.8013 14.2447 20.8032L14.2444 20.8039L14.2444 25.0334C14.2444 25.0334 14.2459 25.0354 14.2475 25.0369C14.2541 25.0431 14.2637 25.047 14.2749 25.0464C15.6231 24.9648 16.4975 25.1092 17.1677 25.3373C17.4974 25.4495 17.7643 25.5776 17.9888 25.6881C18.0085 25.6978 18.0276 25.7073 18.0463 25.7165C18.2495 25.8167 18.4009 25.8913 18.5631 25.9488C18.6545 25.9812 18.9299 26.0218 19.4096 26.0438C19.8588 26.0643 20.414 26.0666 21.0064 26.0569C22.1899 26.0375 23.4917 25.9708 24.328 25.9152L24.348 25.9139H24.3681C24.4601 25.9139 24.5177 25.9022 24.5505 25.8918C24.5814 25.8821 24.5921 25.8729 24.5937 25.8716C24.5954 25.8701 24.6 25.8662 24.6069 25.8528C24.6148 25.8377 24.6259 25.8098 24.6353 25.7633C24.6813 25.5341 24.6314 25.2009 24.5607 24.8077C24.4834 24.3773 24.7014 24.003 24.991 23.8111C25.4957 23.4766 25.5088 23.0716 25.4643 22.9349C25.3822 22.6819 25.3529 22.3065 25.5662 21.9718C25.7767 21.6415 25.7706 21.43 25.7389 21.2997C25.7003 21.141 25.5927 20.9841 25.4394 20.834C25.0944 20.4962 25.0536 19.9803 25.255 19.5951C25.3405 19.4315 25.3401 19.3251 25.3276 19.2579C25.3132 19.1799 25.2693 19.0906 25.1842 18.9951C25.0986 18.8991 24.9892 18.818 24.8881 18.7624C24.8405 18.7362 24.8019 18.7196 24.7771 18.7108H21.3541V16.4733C21.3541 14.5072 20.9005 13.7779 20.5275 13.5036C20.1439 13.2215 19.6099 13.2359 18.9824 13.3764ZM21.2518 12.4639C22.128 13.1083 22.5985 14.3852 22.5985 16.4733V17.4322H24.8221C24.9577 17.4322 25.0842 17.4679 25.1714 17.4981C25.2703 17.5324 25.3736 17.5792 25.4756 17.6353C25.6777 17.7465 25.9053 17.9112 26.1016 18.1313C26.2984 18.3519 26.4815 18.6488 26.5501 19.0186C26.6113 19.3488 26.5733 19.6958 26.4262 20.042C26.6306 20.2688 26.8475 20.5841 26.9462 20.9895C27.0666 21.4842 26.9906 22.027 26.6613 22.5842C26.8668 23.3005 26.5912 24.183 25.8199 24.7754C25.8775 25.1141 25.94 25.5934 25.854 26.0215C25.7974 26.3038 25.6674 26.6177 25.3883 26.8555C25.1133 27.0899 24.7662 27.1887 24.3898 27.1923C23.539 27.2486 22.2266 27.3156 21.0263 27.3352C20.4224 27.3451 19.8392 27.3432 19.3543 27.321C18.8998 27.3002 18.4454 27.2596 18.1573 27.1575C17.9229 27.0744 17.7059 26.9671 17.5143 26.8724C17.4929 26.8618 17.4719 26.8514 17.4512 26.8412C17.2363 26.7354 17.0279 26.6366 16.7764 26.551C16.284 26.3834 15.5716 26.2487 14.3481 26.3227C13.6439 26.3653 13 25.8026 13 25.0339V20.8039C13 20.0771 13.5627 19.5813 14.1346 19.4791C15.2845 19.2738 16.7032 18.3347 17.738 15.9935V13.3698C17.738 12.7972 18.1139 12.2645 18.693 12.1327C19.3574 11.9816 20.3903 11.8304 21.2518 12.4639Z" fill="white"/>
</svg>
